<svg xmlns="http://www.w3.org/2000/svg" xmlns:xlink="http://www.w3.org/1999/xlink" width="197" zoomAndPan="magnify" viewBox="0 0 147.75 112.499997" height="150" preserveAspectRatio="xMidYMid meet" version="1.0"><defs><clipPath id="994c516255"><path d="M 0.203125 0 L 147 0 L 147 112 L 0.203125 112 Z M 0.203125 0 " clip-rule="nonzero"/></clipPath></defs><g clip-path="url(#994c516255)"><path fill="#ffffff" d="M 96.128906 66.605469 C 88.503906 69.78125 77.4375 70.042969 65.808594 70.042969 C 63.59375 70.042969 61.332031 70.03125 59.089844 69.988281 C 60.769531 67.40625 61.597656 64.097656 61.597656 59.945312 C 61.605469 56.648438 61.089844 53.433594 60.050781 50.304688 C 60.921875 50.015625 61.769531 49.664062 62.585938 49.246094 C 63.402344 48.828125 64.183594 48.347656 64.925781 47.808594 C 65.664062 47.265625 66.359375 46.671875 67.007812 46.019531 C 67.65625 45.371094 68.25 44.675781 68.789062 43.929688 C 69.328125 43.1875 69.804688 42.40625 70.21875 41.589844 C 70.636719 40.769531 70.984375 39.921875 71.269531 39.050781 C 71.550781 38.175781 71.761719 37.285156 71.90625 36.378906 C 72.050781 35.472656 72.121094 34.5625 72.121094 33.644531 C 72.117188 33.070312 72.089844 32.496094 72.035156 31.925781 C 71.976562 31.355469 71.890625 30.789062 71.78125 30.226562 C 71.667969 29.664062 71.527344 29.105469 71.359375 28.558594 C 71.195312 28.007812 71 27.46875 70.78125 26.941406 C 70.5625 26.410156 70.316406 25.890625 70.046875 25.386719 C 69.773438 24.878906 69.480469 24.386719 69.160156 23.910156 C 68.84375 23.433594 68.5 22.972656 68.136719 22.53125 C 67.773438 22.085938 67.386719 21.664062 66.984375 21.257812 C 66.578125 20.851562 66.152344 20.464844 65.710938 20.101562 C 65.265625 19.738281 64.804688 19.398438 64.328125 19.078125 C 63.851562 18.757812 63.359375 18.464844 62.855469 18.195312 C 62.347656 17.921875 61.832031 17.675781 61.300781 17.457031 C 60.769531 17.238281 60.230469 17.042969 59.683594 16.878906 C 59.132812 16.710938 58.578125 16.570312 58.015625 16.457031 C 57.453125 16.34375 56.886719 16.261719 56.316406 16.203125 C 55.746094 16.148438 55.171875 16.117188 54.597656 16.117188 C 53.234375 16.117188 51.890625 16.273438 50.5625 16.589844 C 49.234375 16.902344 47.964844 17.367188 46.746094 17.980469 C 45.527344 18.589844 44.394531 19.335938 43.351562 20.210938 C 42.304688 21.089844 41.378906 22.074219 40.5625 23.167969 C 40.039062 21.171875 39.164062 19.316406 38.019531 17.667969 C 45.628906 10.832031 55.382812 7.105469 65.808594 7.105469 C 88.601562 7.105469 107.144531 25.351562 107.144531 47.78125 C 107.144531 57.628906 103.75 63.433594 96.128906 66.605469 M 34.914062 70.070312 C 33.582031 70.054688 32.253906 70.046875 30.921875 70.042969 C 29.570312 70.042969 28.238281 70.058594 26.9375 70.066406 C 19.027344 70.144531 12.195312 70.207031 9.199219 67.242188 C 7.730469 65.789062 7.015625 63.398438 7.015625 59.945312 C 7.015625 59.464844 7.03125 58.984375 7.058594 58.507812 C 7.089844 58.027344 7.132812 57.550781 7.191406 57.074219 C 7.25 56.597656 7.324219 56.121094 7.410156 55.648438 C 7.496094 55.175781 7.597656 54.707031 7.710938 54.242188 C 7.828125 53.773438 7.957031 53.3125 8.097656 52.855469 C 8.242188 52.394531 8.398438 51.941406 8.570312 51.492188 C 8.738281 51.042969 8.921875 50.601562 9.121094 50.164062 C 9.316406 49.722656 9.527344 49.292969 9.75 48.867188 C 9.972656 48.441406 10.207031 48.023438 10.457031 47.613281 C 10.703125 47.203125 10.964844 46.796875 11.238281 46.402344 C 11.507812 46.007812 11.792969 45.621094 12.089844 45.242188 C 12.382812 44.863281 12.691406 44.496094 13.007812 44.132812 C 13.328125 43.773438 13.65625 43.425781 13.992188 43.085938 C 14.332031 42.742188 14.683594 42.414062 15.039062 42.09375 C 15.398438 41.777344 15.765625 41.46875 16.144531 41.171875 C 16.523438 40.875 16.90625 40.589844 17.300781 40.316406 C 17.695312 40.039062 18.097656 39.777344 18.511719 39.53125 C 18.921875 39.28125 19.335938 39.042969 19.761719 38.820312 C 20.1875 38.59375 20.617188 38.382812 21.054688 38.183594 C 21.492188 37.984375 21.933594 37.800781 22.382812 37.628906 C 22.832031 37.457031 23.285156 37.296875 23.742188 37.152344 C 24.199219 37.007812 24.664062 36.878906 25.128906 36.761719 C 25.59375 36.644531 26.0625 36.542969 26.535156 36.453125 C 27.007812 36.367188 27.480469 36.292969 27.957031 36.230469 C 28.433594 36.171875 28.910156 36.125 29.390625 36.09375 C 29.871094 36.0625 30.351562 36.046875 30.832031 36.042969 C 31.308594 36.042969 31.789062 36.054688 32.269531 36.078125 C 32.75 36.105469 33.226562 36.148438 33.703125 36.203125 C 34.179688 36.257812 34.65625 36.328125 35.128906 36.410156 C 35.601562 36.496094 36.070312 36.59375 36.539062 36.707031 C 37.003906 36.816406 37.46875 36.945312 37.929688 37.085938 C 38.386719 37.222656 38.84375 37.378906 39.292969 37.546875 C 39.554688 37.644531 39.824219 37.707031 40.105469 37.738281 C 40.382812 37.769531 40.660156 37.765625 40.9375 37.726562 C 41.214844 37.6875 41.484375 37.617188 41.746094 37.511719 C 42.003906 37.40625 42.25 37.273438 42.472656 37.105469 C 42.699219 36.941406 42.902344 36.75 43.082031 36.535156 C 43.261719 36.316406 43.410156 36.082031 43.53125 35.832031 C 43.652344 35.578125 43.738281 35.3125 43.792969 35.039062 C 43.851562 34.761719 43.871094 34.484375 43.855469 34.207031 C 43.820312 33.476562 43.855469 32.753906 43.964844 32.03125 C 44.074219 31.308594 44.257812 30.605469 44.507812 29.921875 C 44.761719 29.238281 45.082031 28.585938 45.46875 27.964844 C 45.851562 27.347656 46.296875 26.769531 46.800781 26.242188 C 47.300781 25.710938 47.851562 25.238281 48.449219 24.820312 C 49.050781 24.40625 49.683594 24.050781 50.355469 23.761719 C 51.023438 23.476562 51.714844 23.257812 52.429688 23.109375 C 53.144531 22.960938 53.867188 22.886719 54.597656 22.886719 C 55.304688 22.886719 56.003906 22.957031 56.695312 23.09375 C 57.386719 23.234375 58.058594 23.4375 58.710938 23.707031 C 59.363281 23.980469 59.984375 24.308594 60.570312 24.703125 C 61.15625 25.09375 61.703125 25.542969 62.199219 26.039062 C 62.699219 26.539062 63.144531 27.082031 63.539062 27.667969 C 63.929688 28.257812 64.261719 28.875 64.53125 29.527344 C 64.804688 30.179688 65.007812 30.851562 65.144531 31.546875 C 65.285156 32.238281 65.351562 32.9375 65.355469 33.644531 C 65.355469 34.324219 65.289062 35 65.164062 35.671875 C 65.035156 36.339844 64.84375 36.992188 64.589844 37.628906 C 64.339844 38.261719 64.027344 38.867188 63.660156 39.441406 C 63.292969 40.015625 62.875 40.550781 62.40625 41.042969 C 61.933594 41.539062 61.421875 41.984375 60.867188 42.382812 C 60.3125 42.78125 59.726562 43.121094 59.105469 43.410156 C 58.488281 43.695312 57.847656 43.917969 57.183594 44.082031 C 56.523438 44.246094 55.851562 44.34375 55.167969 44.382812 C 54.886719 44.394531 54.613281 44.445312 54.34375 44.527344 C 54.078125 44.609375 53.820312 44.722656 53.582031 44.871094 C 53.34375 45.015625 53.125 45.191406 52.925781 45.390625 C 52.730469 45.59375 52.5625 45.8125 52.417969 46.054688 C 52.277344 46.300781 52.167969 46.554688 52.089844 46.824219 C 52.011719 47.09375 51.96875 47.371094 51.960938 47.652344 C 51.953125 47.933594 51.976562 48.210938 52.039062 48.484375 C 52.097656 48.757812 52.191406 49.023438 52.316406 49.273438 C 54.003906 52.632812 54.839844 56.191406 54.832031 59.949219 C 54.832031 63.398438 54.117188 65.789062 52.648438 67.242188 C 49.652344 70.210938 42.820312 70.144531 34.910156 70.066406 M 12.859375 27.632812 C 12.859375 26.925781 12.929688 26.226562 13.070312 25.535156 C 13.207031 24.84375 13.410156 24.171875 13.683594 23.519531 C 13.953125 22.867188 14.285156 22.246094 14.675781 21.660156 C 15.070312 21.074219 15.515625 20.53125 16.015625 20.03125 C 16.511719 19.53125 17.054688 19.085938 17.644531 18.695312 C 18.230469 18.300781 18.851562 17.96875 19.5 17.699219 C 20.152344 17.429688 20.824219 17.226562 21.519531 17.085938 C 22.210938 16.949219 22.910156 16.878906 23.617188 16.878906 C 24.003906 16.878906 24.394531 16.898438 24.78125 16.941406 C 25.171875 16.984375 25.554688 17.046875 25.9375 17.132812 C 26.316406 17.21875 26.691406 17.324219 27.0625 17.449219 C 27.429688 17.574219 27.792969 17.71875 28.144531 17.882812 C 28.5 18.046875 28.84375 18.230469 29.179688 18.433594 C 29.511719 18.636719 29.832031 18.855469 30.144531 19.089844 C 30.453125 19.328125 30.75 19.582031 31.03125 19.851562 C 31.316406 20.121094 31.582031 20.402344 31.832031 20.703125 C 32.085938 21 32.320312 21.3125 32.539062 21.636719 C 32.753906 21.957031 32.957031 22.292969 33.136719 22.636719 C 33.316406 22.984375 33.480469 23.339844 33.625 23.703125 C 33.765625 24.0625 33.890625 24.433594 33.992188 24.8125 C 34.09375 25.1875 34.175781 25.566406 34.238281 25.953125 C 34.300781 26.339844 34.339844 26.726562 34.359375 27.117188 C 34.378906 27.503906 34.375 27.894531 34.351562 28.285156 C 34.332031 28.675781 34.285156 29.0625 34.222656 29.445312 C 30.835938 29.074219 27.484375 29.265625 24.164062 30.015625 C 20.84375 30.769531 17.734375 32.042969 14.839844 33.835938 C 13.523438 31.976562 12.863281 29.910156 12.859375 27.632812 M 132.039062 62.085938 L 110.910156 62.085938 C 112.917969 58.171875 113.910156 53.417969 113.910156 47.78125 C 113.910156 21.621094 92.335938 0.335938 65.808594 0.335938 C 53.535156 0.335938 42.058594 4.792969 33.152344 12.941406 C 31.734375 12.015625 30.214844 11.3125 28.589844 10.828125 C 26.96875 10.347656 25.308594 10.105469 23.617188 10.109375 C 23.042969 10.109375 22.46875 10.136719 21.898438 10.195312 C 21.328125 10.25 20.761719 10.335938 20.199219 10.449219 C 19.636719 10.5625 19.078125 10.699219 18.53125 10.867188 C 17.980469 11.035156 17.441406 11.226562 16.914062 11.449219 C 16.382812 11.667969 15.863281 11.914062 15.359375 12.183594 C 14.851562 12.453125 14.363281 12.75 13.886719 13.066406 C 13.40625 13.386719 12.949219 13.730469 12.503906 14.09375 C 12.0625 14.457031 11.636719 14.839844 11.230469 15.246094 C 10.824219 15.652344 10.441406 16.078125 10.078125 16.519531 C 9.710938 16.964844 9.371094 17.425781 9.050781 17.902344 C 8.734375 18.378906 8.4375 18.871094 8.167969 19.375 C 7.898438 19.882812 7.652344 20.398438 7.433594 20.929688 C 7.210938 21.460938 7.019531 22 6.851562 22.546875 C 6.6875 23.097656 6.546875 23.652344 6.433594 24.214844 C 6.320312 24.777344 6.238281 25.34375 6.179688 25.917969 C 6.125 26.488281 6.09375 27.058594 6.09375 27.632812 C 6.09375 31.398438 7.308594 35.027344 9.503906 38.011719 C 8.039062 39.4375 6.730469 40.992188 5.574219 42.683594 C 4.421875 44.371094 3.449219 46.15625 2.652344 48.039062 C 1.859375 49.925781 1.257812 51.867188 0.855469 53.871094 C 0.449219 55.875 0.246094 57.902344 0.25 59.945312 C 0.25 65.300781 1.617188 69.257812 4.4375 72.050781 C 9.441406 77.003906 17.578125 76.929688 27.003906 76.835938 C 29.5625 76.8125 45.398438 76.753906 48.382812 76.234375 C 53.90625 76.734375 60.011719 76.808594 65.808594 76.808594 C 78.148438 76.808594 89.953125 76.507812 98.730469 72.855469 C 101.183594 71.859375 103.433594 70.527344 105.484375 68.851562 L 132.039062 68.851562 C 136.167969 68.851562 139.523438 72.214844 139.523438 76.339844 C 139.523438 76.832031 139.476562 77.316406 139.378906 77.800781 C 139.28125 78.28125 139.140625 78.75 138.953125 79.203125 C 138.765625 79.65625 138.535156 80.085938 138.261719 80.496094 C 137.988281 80.902344 137.675781 81.28125 137.328125 81.628906 C 136.984375 81.976562 136.605469 82.285156 136.195312 82.558594 C 135.789062 82.832031 135.355469 83.0625 134.902344 83.25 C 134.449219 83.441406 133.980469 83.582031 133.5 83.679688 C 133.019531 83.773438 132.53125 83.824219 132.039062 83.824219 L 47.789062 83.824219 C 46.875 83.828125 45.96875 83.917969 45.074219 84.097656 C 44.175781 84.277344 43.304688 84.539062 42.460938 84.890625 C 41.613281 85.238281 40.808594 85.667969 40.046875 86.171875 C 39.285156 86.679688 38.578125 87.253906 37.929688 87.894531 C 37.277344 88.539062 36.695312 89.238281 36.183594 89.996094 C 35.667969 90.75 35.230469 91.550781 34.875 92.390625 C 34.515625 93.234375 34.242188 94.101562 34.050781 94.996094 C 33.863281 95.890625 33.761719 96.796875 33.75 97.710938 C 33.722656 99.589844 34.0625 101.398438 34.765625 103.136719 C 35.46875 104.878906 36.484375 106.414062 37.808594 107.742188 C 39.125 109.082031 40.648438 110.109375 42.378906 110.832031 C 44.109375 111.554688 45.914062 111.914062 47.789062 111.90625 L 97.421875 111.90625 C 97.859375 111.894531 98.28125 111.796875 98.683594 111.621094 C 99.085938 111.441406 99.4375 111.195312 99.742188 110.878906 C 100.050781 110.5625 100.285156 110.203125 100.449219 109.792969 C 100.613281 109.386719 100.699219 108.964844 100.699219 108.523438 C 100.699219 108.085938 100.613281 107.664062 100.449219 107.253906 C 100.285156 106.847656 100.050781 106.484375 99.742188 106.171875 C 99.4375 105.855469 99.085938 105.609375 98.683594 105.429688 C 98.28125 105.253906 97.859375 105.15625 97.421875 105.140625 L 47.789062 105.140625 C 45.832031 105.140625 43.992188 104.371094 42.617188 102.984375 C 41.933594 102.292969 41.40625 101.5 41.042969 100.597656 C 40.679688 99.695312 40.503906 98.761719 40.515625 97.789062 C 40.523438 97.316406 40.578125 96.847656 40.675781 96.382812 C 40.773438 95.917969 40.914062 95.46875 41.097656 95.03125 C 41.285156 94.597656 41.511719 94.183594 41.777344 93.789062 C 42.042969 93.398438 42.34375 93.035156 42.683594 92.703125 C 43.019531 92.367188 43.382812 92.070312 43.777344 91.808594 C 44.175781 91.546875 44.589844 91.324219 45.027344 91.144531 C 45.464844 90.964844 45.917969 90.828125 46.382812 90.734375 C 46.847656 90.640625 47.316406 90.59375 47.789062 90.59375 L 132.039062 90.59375 C 132.972656 90.589844 133.898438 90.5 134.816406 90.316406 C 135.734375 90.132812 136.625 89.863281 137.488281 89.503906 C 138.355469 89.144531 139.175781 88.707031 139.953125 88.1875 C 140.730469 87.667969 141.449219 87.074219 142.113281 86.414062 C 142.773438 85.753906 143.363281 85.03125 143.886719 84.253906 C 144.40625 83.476562 144.84375 82.65625 145.203125 81.792969 C 145.5625 80.929688 145.832031 80.039062 146.015625 79.121094 C 146.199219 78.203125 146.292969 77.277344 146.292969 76.339844 C 146.292969 75.40625 146.199219 74.476562 146.015625 73.558594 C 145.832031 72.644531 145.5625 71.75 145.203125 70.886719 C 144.847656 70.023438 144.40625 69.203125 143.886719 68.425781 C 143.367188 67.644531 142.777344 66.925781 142.113281 66.265625 C 141.453125 65.601562 140.734375 65.011719 139.957031 64.492188 C 139.179688 63.972656 138.355469 63.53125 137.492188 63.175781 C 136.628906 62.816406 135.738281 62.542969 134.820312 62.359375 C 133.902344 62.175781 132.976562 62.085938 132.039062 62.085938 " fill-opacity="1" fill-rule="evenodd"/></g><path fill="#ffffff" d="M 36.113281 47.113281 C 36.414062 47.113281 36.710938 47.144531 37.003906 47.203125 C 37.300781 47.261719 37.585938 47.347656 37.863281 47.460938 C 38.140625 47.578125 38.402344 47.71875 38.652344 47.882812 C 38.902344 48.050781 39.132812 48.238281 39.34375 48.453125 C 39.554688 48.664062 39.746094 48.894531 39.914062 49.144531 C 40.078125 49.394531 40.21875 49.65625 40.335938 49.933594 C 40.449219 50.210938 40.535156 50.496094 40.59375 50.789062 C 40.652344 51.085938 40.683594 51.382812 40.683594 51.683594 C 40.683594 51.980469 40.652344 52.277344 40.59375 52.574219 C 40.535156 52.867188 40.449219 53.152344 40.335938 53.429688 C 40.21875 53.707031 40.078125 53.96875 39.914062 54.21875 C 39.746094 54.46875 39.554688 54.699219 39.34375 54.910156 C 39.132812 55.125 38.902344 55.3125 38.652344 55.480469 C 38.402344 55.644531 38.140625 55.789062 37.863281 55.902344 C 37.585938 56.015625 37.300781 56.101562 37.003906 56.160156 C 36.710938 56.21875 36.414062 56.25 36.113281 56.25 C 35.8125 56.25 35.515625 56.21875 35.222656 56.160156 C 34.929688 56.101562 34.644531 56.015625 34.367188 55.902344 C 34.089844 55.789062 33.824219 55.644531 33.578125 55.480469 C 33.328125 55.3125 33.097656 55.125 32.882812 54.910156 C 32.671875 54.699219 32.484375 54.46875 32.316406 54.21875 C 32.148438 53.96875 32.007812 53.707031 31.894531 53.429688 C 31.78125 53.152344 31.691406 52.867188 31.632812 52.574219 C 31.574219 52.277344 31.546875 51.980469 31.546875 51.683594 C 31.546875 51.382812 31.574219 51.085938 31.632812 50.789062 C 31.691406 50.496094 31.78125 50.210938 31.894531 49.933594 C 32.007812 49.65625 32.148438 49.394531 32.316406 49.144531 C 32.484375 48.894531 32.671875 48.664062 32.882812 48.453125 C 33.097656 48.238281 33.328125 48.050781 33.578125 47.882812 C 33.824219 47.71875 34.089844 47.578125 34.367188 47.460938 C 34.644531 47.347656 34.929688 47.261719 35.222656 47.203125 C 35.515625 47.144531 35.8125 47.113281 36.113281 47.113281 " fill-opacity="1" fill-rule="evenodd"/></svg>