<svg xmlns="http://www.w3.org/2000/svg" xmlns:xlink="http://www.w3.org/1999/xlink" width="148" zoomAndPan="magnify" viewBox="0 0 110.88 84.749999" height="113" preserveAspectRatio="xMidYMid meet" version="1.0"><defs><clipPath id="780cd6c50d"><path d="M 4 24.203125 L 105.34375 24.203125 L 105.34375 61.917969 L 4 61.917969 Z M 4 24.203125 " clip-rule="nonzero"/></clipPath></defs><g clip-path="url(#780cd6c50d)"><path fill="#ffffff" d="M 25.242188 38.207031 C 24.800781 38.207031 24.378906 38.125 23.96875 37.957031 C 23.5625 37.785156 23.203125 37.546875 22.890625 37.234375 C 22.578125 36.925781 22.339844 36.566406 22.175781 36.160156 C 22.003906 35.757812 21.917969 35.332031 21.917969 34.894531 C 21.917969 34.453125 22.003906 34.027344 22.175781 33.621094 C 22.339844 33.214844 22.578125 32.859375 22.890625 32.546875 C 23.203125 32.234375 23.5625 31.996094 23.96875 31.824219 C 24.378906 31.660156 24.800781 31.574219 25.242188 31.574219 C 25.683594 31.574219 26.105469 31.660156 26.511719 31.824219 C 26.921875 31.996094 27.28125 32.234375 27.59375 32.546875 C 27.898438 32.859375 28.144531 33.214844 28.308594 33.621094 C 28.476562 34.027344 28.5625 34.453125 28.5625 34.894531 C 28.5625 35.332031 28.476562 35.757812 28.308594 36.160156 C 28.144531 36.566406 27.898438 36.925781 27.59375 37.234375 C 27.28125 37.546875 26.921875 37.785156 26.511719 37.957031 C 26.105469 38.125 25.683594 38.207031 25.242188 38.207031 M 105.335938 59.097656 L 101.503906 43.523438 C 101.460938 43.363281 101.460938 43.199219 101.503906 43.03125 L 105.3125 27.570312 C 105.609375 26.339844 103.753906 25.640625 102.933594 26.679688 L 91.011719 41.75 L 86.394531 41.75 L 86.394531 33.703125 L 83.304688 33.703125 L 83.304688 41.75 L 78.09375 41.75 L 78.09375 31.0625 L 75 31.0625 L 75 41.75 L 69.78125 41.75 L 69.78125 29.109375 L 66.691406 29.109375 L 66.691406 41.75 L 61.472656 41.75 L 61.472656 27.488281 L 58.382812 27.488281 L 58.382812 41.75 L 53.171875 41.75 L 53.171875 26.152344 L 50.078125 26.152344 L 50.078125 41.75 L 44.859375 41.75 L 44.859375 24.203125 L 41.769531 24.203125 L 41.769531 41.75 L 34.714844 41.75 L 34.714844 24.203125 C 21.492188 24.203125 4.117188 38.3125 4.117188 43.292969 C 4.117188 48.265625 21.492188 62.371094 34.714844 62.371094 L 34.714844 44.832031 L 41.769531 44.832031 L 41.769531 62.371094 L 44.859375 62.371094 L 44.859375 44.832031 L 50.078125 44.832031 L 50.078125 60.066406 L 53.171875 60.066406 L 53.171875 44.832031 L 58.382812 44.832031 L 58.382812 59.046875 L 61.472656 59.046875 L 61.472656 44.832031 L 66.691406 44.832031 L 66.691406 57.308594 L 69.78125 57.308594 L 69.78125 44.832031 L 75 44.832031 L 75 55.40625 L 78.09375 55.40625 L 78.09375 44.832031 L 83.304688 44.832031 L 83.304688 52.742188 L 86.394531 52.742188 L 86.394531 44.832031 L 90.902344 44.832031 L 102.953125 59.992188 C 103.78125 61.03125 105.628906 60.335938 105.335938 59.097656 " fill-opacity="1" fill-rule="evenodd"/></g></svg>