<svg viewBox="0 0 42 32" id="sensory-hacks" xmlns="http://www.w3.org/2000/svg"><g fill="currentColor" fill-rule="evenodd"><path d="M27.394 18.96c-2.179.907-5.341.982-8.663.982-.633 0-1.279-.004-1.92-.016.48-.737.717-1.683.717-2.869a8.69 8.69 0 00-.442-2.755 5.005 5.005 0 003.448-4.76 5.012 5.012 0 00-5.006-5.007 5 5 0 00-4.01 2.014c-.15-.57-.4-1.1-.727-1.571 2.174-1.953 4.961-3.018 7.94-3.018 6.512 0 11.81 5.213 11.81 11.622 0 2.813-.97 4.472-3.147 5.378m-17.49.99a117.82 117.82 0 00-1.14-.008c-.387 0-.767.004-1.139.007-2.26.022-4.212.04-5.068-.807-.42-.416-.624-1.098-.624-2.085a6.838 6.838 0 019.222-6.4.967.967 0 001.304-.954 3.076 3.076 0 013.069-3.234 3.076 3.076 0 013.073 3.073 3.07 3.07 0 01-2.91 3.068.967.967 0 00-.815 1.398 6.76 6.76 0 01.719 3.05c0 .986-.204 1.668-.624 2.084-.856.848-2.808.829-5.068.807m-6.3-12.124a3.077 3.077 0 013.073-3.073 3.077 3.077 0 013.03 3.591 8.71 8.71 0 00-5.537 1.254 3.068 3.068 0 01-.566-1.772m34.05 9.843h-6.036c.573-1.118.857-2.476.857-4.086C32.474 6.107 26.31.026 18.731.026c-3.507 0-6.786 1.273-9.33 3.602a4.975 4.975 0 00-2.725-.81A5.012 5.012 0 001.67 7.825c0 1.076.347 2.113.974 2.965A8.737 8.737 0 000 17.057c0 1.53.391 2.661 1.197 3.459 1.429 1.415 3.754 1.393 6.447 1.367.731-.007 5.256-.024 6.108-.172 1.578.143 3.323.164 4.979.164 3.525 0 6.898-.086 9.406-1.13a7.528 7.528 0 001.93-1.143h7.587c1.179 0 2.138.96 2.138 2.139a2.14 2.14 0 01-2.138 2.138H13.583a4.026 4.026 0 00-4.012 3.968 3.983 3.983 0 001.16 2.866 3.983 3.983 0 002.852 1.19h14.18a.967.967 0 000-1.933h-14.18c-.56 0-1.085-.22-1.478-.617a2.064 2.064 0 01-.6-1.484 2.085 2.085 0 012.078-2.056h24.07a4.077 4.077 0 004.073-4.072 4.077 4.077 0 00-4.072-4.073" mask="url(#mask-2)" transform="translate(0 .07)"></path><path d="M10.247 13.461a1.305 1.305 0 110 2.61 1.305 1.305 0 010-2.61"></path></g></svg>