<svg xmlns="http://www.w3.org/2000/svg" xmlns:xlink="http://www.w3.org/1999/xlink" width="148" zoomAndPan="magnify" viewBox="0 0 110.88 84.749999" height="113" preserveAspectRatio="xMidYMid meet" version="1.0"><defs><clipPath id="67dbe9caed"><path d="M 15.628906 2.390625 L 95.785156 2.390625 L 95.785156 82 L 15.628906 82 Z M 15.628906 2.390625 " clip-rule="nonzero"/></clipPath></defs><g clip-path="url(#67dbe9caed)"><path fill="#ffffff" d="M 31.589844 15.03125 L 38.269531 21.71875 L 53.851562 6.117188 C 51.8125 6.203125 49.789062 6.453125 47.792969 6.882812 C 45.796875 7.308594 43.851562 7.902344 41.953125 8.660156 C 40.058594 9.421875 38.242188 10.335938 36.5 11.40625 C 34.761719 12.472656 33.125 13.683594 31.589844 15.03125 Z M 40.882812 24.332031 L 46.988281 30.441406 L 68.753906 8.65625 C 65.59375 7.398438 62.320312 6.601562 58.933594 6.265625 Z M 49.601562 33.058594 L 55.703125 39.167969 L 79.5 15.359375 C 77.277344 13.351562 74.867188 11.671875 72.328125 10.316406 Z M 58.324219 41.785156 L 64.425781 47.894531 L 87.15625 25.144531 C 85.769531 22.546875 84.085938 20.160156 82.113281 17.976562 Z M 67.042969 50.511719 L 73.144531 56.621094 L 91.214844 38.535156 C 90.882812 35.144531 90.089844 31.875 88.824219 28.710938 Z M 75.761719 59.238281 L 82.441406 65.925781 C 83.796875 64.390625 85.003906 62.75 86.078125 61.007812 C 87.148438 59.265625 88.070312 57.449219 88.828125 55.546875 C 89.585938 53.648438 90.179688 51.695312 90.605469 49.695312 C 91.03125 47.695312 91.285156 45.671875 91.363281 43.628906 Z M 23.804688 24.695312 L 72.777344 73.707031 C 75.347656 72.285156 77.710938 70.578125 79.863281 68.578125 L 28.9375 17.613281 C 26.9375 19.761719 25.230469 22.125 23.804688 24.691406 Z M 19.570312 37.90625 L 59.5625 77.933594 C 62.867188 77.546875 66.128906 76.707031 69.246094 75.410156 L 22.09375 28.21875 C 20.8125 31.296875 19.957031 34.550781 19.570312 37.90625 Z M 29.878906 67.628906 C 31.503906 69.261719 33.269531 70.714844 35.167969 72.007812 C 37.074219 73.292969 39.085938 74.394531 41.199219 75.292969 C 43.316406 76.195312 45.496094 76.890625 47.746094 77.375 C 49.992188 77.855469 52.265625 78.121094 54.566406 78.164062 L 19.335938 42.910156 C 19.378906 45.214844 19.640625 47.492188 20.125 49.742188 C 20.605469 51.996094 21.300781 54.183594 22.203125 56.300781 C 23.109375 58.417969 24.203125 60.429688 25.496094 62.335938 C 26.785156 64.242188 28.25 66.007812 29.882812 67.628906 Z M 55.355469 81.875 C 52.75 81.882812 50.164062 81.632812 47.605469 81.125 C 45.046875 80.617188 42.5625 79.863281 40.152344 78.871094 C 37.742188 77.871094 35.453125 76.648438 33.28125 75.195312 C 31.113281 73.746094 29.105469 72.09375 27.261719 70.25 C 25.414062 68.40625 23.757812 66.398438 22.308594 64.234375 C 20.855469 62.0625 19.628906 59.769531 18.632812 57.355469 C 17.632812 54.945312 16.878906 52.457031 16.375 49.894531 C 15.867188 47.332031 15.621094 44.742188 15.628906 42.132812 C 15.628906 31.511719 19.761719 21.53125 27.265625 14.019531 C 42.757812 -1.484375 67.964844 -1.484375 83.457031 14.019531 C 85.304688 15.863281 86.957031 17.867188 88.40625 20.039062 C 89.863281 22.207031 91.085938 24.5 92.085938 26.910156 C 93.085938 29.324219 93.839844 31.808594 94.34375 34.375 C 94.851562 36.9375 95.097656 39.523438 95.09375 42.132812 C 95.09375 52.753906 90.960938 62.738281 83.457031 70.253906 C 81.609375 72.097656 79.605469 73.746094 77.433594 75.195312 C 75.265625 76.648438 72.976562 77.871094 70.566406 78.871094 C 68.15625 79.867188 65.667969 80.621094 63.113281 81.128906 C 60.550781 81.632812 57.96875 81.882812 55.359375 81.878906 Z M 55.355469 81.875 " fill-opacity="1" fill-rule="evenodd"/></g></svg>