<svg xmlns="http://www.w3.org/2000/svg" xmlns:xlink="http://www.w3.org/1999/xlink" width="148" zoomAndPan="magnify" viewBox="0 0 110.88 84.749999" height="113" preserveAspectRatio="xMidYMid meet" version="1.0"><defs><clipPath id="a7bcf3e9f1"><path d="M 4.585938 1.453125 L 108 1.453125 L 108 82.425781 L 4.585938 82.425781 Z M 4.585938 1.453125 " clip-rule="nonzero"/></clipPath></defs><g clip-path="url(#a7bcf3e9f1)"><path fill="#ffffff" d="M 58.308594 53.652344 C 58.308594 53.371094 58.253906 53.097656 58.152344 52.839844 C 58.039062 52.574219 57.886719 52.34375 57.683594 52.144531 C 57.484375 51.945312 57.253906 51.792969 56.996094 51.683594 C 56.734375 51.574219 56.464844 51.523438 56.175781 51.523438 L 37.378906 51.523438 L 57.464844 31.214844 C 57.765625 30.914062 57.957031 30.546875 58.039062 30.128906 C 58.117188 29.703125 58.078125 29.296875 57.914062 28.894531 C 57.75 28.5 57.484375 28.183594 57.128906 27.941406 C 56.769531 27.707031 56.375 27.585938 55.945312 27.585938 L 32.269531 27.585938 C 31.988281 27.585938 31.714844 27.640625 31.457031 27.75 C 31.191406 27.855469 30.960938 28.007812 30.761719 28.210938 C 30.566406 28.410156 30.410156 28.640625 30.300781 28.90625 C 30.191406 29.164062 30.140625 29.433594 30.140625 29.71875 C 30.140625 30 30.191406 30.277344 30.300781 30.535156 C 30.410156 30.796875 30.566406 31.03125 30.761719 31.226562 C 30.960938 31.425781 31.191406 31.578125 31.457031 31.691406 C 31.714844 31.800781 31.988281 31.847656 32.269531 31.847656 L 50.839844 31.847656 L 30.757812 52.15625 C 30.457031 52.457031 30.261719 52.828125 30.179688 53.246094 C 30.097656 53.667969 30.136719 54.082031 30.308594 54.476562 C 30.472656 54.875 30.730469 55.191406 31.085938 55.429688 C 31.445312 55.667969 31.839844 55.789062 32.269531 55.789062 L 56.183594 55.789062 C 57.355469 55.789062 58.308594 54.828125 58.308594 53.652344 M 107.648438 53.652344 C 107.648438 53.371094 107.59375 53.097656 107.488281 52.839844 C 107.378906 52.574219 107.226562 52.347656 107.027344 52.144531 C 106.824219 51.945312 106.59375 51.792969 106.335938 51.683594 C 106.078125 51.578125 105.800781 51.523438 105.523438 51.523438 L 95.386719 51.523438 L 106.886719 39.898438 C 107.1875 39.589844 107.378906 39.226562 107.460938 38.804688 C 107.542969 38.386719 107.507812 37.972656 107.339844 37.578125 C 107.171875 37.179688 106.914062 36.863281 106.554688 36.625 C 106.199219 36.382812 105.800781 36.265625 105.375 36.265625 L 90.28125 36.265625 C 90 36.273438 89.738281 36.332031 89.484375 36.449219 C 89.230469 36.558594 89.011719 36.710938 88.820312 36.917969 C 88.625 37.113281 88.480469 37.339844 88.375 37.597656 C 88.269531 37.855469 88.214844 38.121094 88.214844 38.394531 C 88.214844 38.675781 88.269531 38.941406 88.375 39.199219 C 88.480469 39.457031 88.625 39.683594 88.820312 39.882812 C 89.011719 40.078125 89.230469 40.238281 89.484375 40.347656 C 89.738281 40.464844 90 40.527344 90.28125 40.53125 L 100.261719 40.53125 L 88.769531 52.152344 C 88.46875 52.457031 88.273438 52.820312 88.191406 53.246094 C 88.117188 53.667969 88.152344 54.078125 88.320312 54.472656 C 88.484375 54.867188 88.746094 55.1875 89.105469 55.425781 C 89.460938 55.667969 89.851562 55.789062 90.28125 55.789062 L 105.523438 55.789062 C 106.699219 55.789062 107.65625 54.828125 107.65625 53.652344 M 82.769531 53.652344 C 82.769531 53.367188 82.714844 53.097656 82.601562 52.832031 C 82.492188 52.574219 82.339844 52.34375 82.140625 52.144531 C 81.9375 51.941406 81.710938 51.789062 81.449219 51.683594 C 81.191406 51.574219 80.914062 51.519531 80.636719 51.519531 L 70.5 51.519531 L 82 39.898438 C 82.300781 39.589844 82.492188 39.226562 82.574219 38.804688 C 82.65625 38.378906 82.613281 37.972656 82.449219 37.578125 C 82.285156 37.179688 82.019531 36.863281 81.664062 36.625 C 81.304688 36.382812 80.914062 36.261719 80.488281 36.261719 L 65.394531 36.261719 C 65.113281 36.273438 64.851562 36.332031 64.597656 36.441406 C 64.34375 36.558594 64.125 36.710938 63.933594 36.910156 C 63.742188 37.109375 63.59375 37.339844 63.488281 37.59375 C 63.382812 37.851562 63.328125 38.121094 63.328125 38.394531 C 63.328125 38.671875 63.382812 38.941406 63.488281 39.199219 C 63.59375 39.453125 63.742188 39.683594 63.933594 39.882812 C 64.125 40.078125 64.34375 40.234375 64.597656 40.347656 C 64.851562 40.460938 65.113281 40.519531 65.394531 40.53125 L 75.382812 40.53125 L 63.878906 52.152344 C 63.574219 52.457031 63.382812 52.820312 63.300781 53.246094 C 63.222656 53.667969 63.261719 54.078125 63.425781 54.472656 C 63.59375 54.867188 63.855469 55.1875 64.214844 55.425781 C 64.570312 55.667969 64.964844 55.789062 65.394531 55.789062 L 80.628906 55.789062 C 81.804688 55.789062 82.761719 54.828125 82.761719 53.652344 M 72.933594 70.78125 C 65.328125 78.128906 55.363281 82.128906 44.988281 82.128906 C 43.230469 82.128906 41.453125 82.015625 39.671875 81.78125 C 17.644531 78.878906 2.078125 58.582031 4.976562 36.53125 C 7.871094 14.480469 28.148438 -1.105469 50.179688 1.796875 C 50.746094 1.875 51.308594 1.964844 51.867188 2.0625 C 52.265625 2.128906 52.609375 2.300781 52.914062 2.5625 C 53.210938 2.828125 53.417969 3.152344 53.539062 3.539062 C 53.65625 3.921875 53.664062 4.308594 53.566406 4.691406 C 53.460938 5.082031 53.269531 5.417969 52.984375 5.695312 C 50.515625 8.066406 48.433594 10.734375 46.734375 13.703125 C 45.042969 16.675781 43.792969 19.824219 43.003906 23.152344 L 38.632812 23.152344 C 39.996094 16.652344 42.816406 10.867188 47.085938 5.78125 C 46.363281 5.738281 45.628906 5.714844 44.90625 5.714844 C 27.101562 5.714844 11.582031 18.957031 9.195312 37.085938 C 6.609375 56.804688 20.53125 74.960938 40.226562 77.558594 C 49.8125 78.816406 59.328125 76.222656 66.890625 70.382812 C 60.320312 68.519531 54.605469 65.191406 49.742188 60.398438 L 56.253906 60.398438 C 60.898438 63.90625 66.085938 66.15625 71.820312 67.148438 C 72.214844 67.214844 72.5625 67.386719 72.863281 67.648438 C 73.167969 67.914062 73.375 68.238281 73.492188 68.621094 C 73.613281 69.003906 73.617188 69.394531 73.519531 69.777344 C 73.417969 70.167969 73.226562 70.5 72.933594 70.78125 " fill-opacity="1" fill-rule="evenodd"/></g></svg>